<svg width="212" height="107" viewBox="0 0 212 107" fill="none" xmlns="http://www.w3.org/2000/svg">
<mask id="mask0_312_40" style="mask-type:luminance" maskUnits="userSpaceOnUse" x="0" y="0" width="191" height="107">
<path d="M0.808838 0.29834H190.761V106.995H0.808838V0.29834Z" fill="white"/>
</mask>
<g mask="url(#mask0_312_40)">
<path d="M188.843 107.007C189.899 107.007 190.754 106.012 190.754 104.79V98.6467C190.754 97.4234 189.899 96.4319 188.843 96.4319H134.814C165.223 79.7216 186.518 43.9356 187.265 2.51139C187.265 1.28817 186.41 0.296631 185.354 0.296631H180.059C179.004 0.296631 178.15 1.28817 178.15 2.51139C177.021 54.1393 140.554 95.8519 95.7815 95.8519C51.0074 95.8519 14.5393 54.1393 13.4113 2.51139C13.4113 1.28817 12.5562 0.296631 11.5024 0.296631H6.2067C5.15148 0.296631 4.29639 1.28817 4.29639 2.51139C5.04512 43.9356 26.3385 79.7216 56.7496 96.4319H2.71915C1.66253 96.4319 0.808838 97.4234 0.808838 98.6467V104.79C0.808838 106.012 1.66253 107.007 2.71915 107.007H188.843Z" fill="#231F20"/>
</g>
<path d="M170.732 27.1444C170.732 30.0461 137.085 32.3986 95.58 32.3986C54.0751 32.3986 20.4298 30.0461 20.4298 27.1444C20.4298 24.2427 54.0751 21.8918 95.58 21.8918C137.085 21.8918 170.732 24.2427 170.732 27.1444Z" fill="#231F20"/>
<mask id="mask1_312_40" style="mask-type:luminance" maskUnits="userSpaceOnUse" x="178" y="10" width="34" height="43">
<path d="M178.905 10.7499H212V52.8351H178.905V10.7499Z" fill="white"/>
</mask>
<g mask="url(#mask1_312_40)">
<path d="M178.996 52.8222C191.23 49.7115 202.793 46.024 209.576 35.0312C218.678 20.2829 199.927 13.7375 190.147 10.7532L188.403 18.4473C194.659 20.3591 207.68 24.1697 201.854 33.6087C197.512 40.6451 188.817 42.0465 180.989 44.0377L178.996 52.8222Z" fill="#231F20"/>
</g>
</svg>
