<svg width="134" height="162" viewBox="0 0 134 162" fill="none" xmlns="http://www.w3.org/2000/svg">
<path d="M40.7534 49.9575C38.1991 45.5253 33.2543 33.4595 33.1913 22.0995C33.0862 20.5608 33.0862 19.0168 33.1913 17.4782C33.4266 15.0793 34.1198 7.9373 39.4931 3.55126C39.8124 3.29079 45.1521 -0.935599 51.6765 0.190318C63.3726 2.18168 69.1786 19.6838 70.1617 28.0484C70.5018 31.2729 70.6421 34.5154 70.5818 37.7573C70.5046 41.2869 70.2241 44.8091 69.7416 48.3065C68.9014 54.562 67.641 59.7043 67.641 59.7043C83.7526 73.043 84.0256 77.0089 97.4694 90.5158C97.9484 89.6125 98.6584 88.2975 99.57 86.7347C101.423 83.5586 102.57 81.5924 104.191 79.5927C105.527 77.9458 107.653 75.3243 111.333 73.2909C113.879 71.7604 116.768 70.8937 119.736 70.7702C121.311 70.7282 125.836 70.6148 129.398 73.711C132.852 76.7107 133.402 80.9917 133.6 82.5335C134.704 91.1165 125.853 101.678 111.753 109.421C114.274 113.349 116.828 117.55 119.316 122.025C124.283 130.96 128.634 140.224 132.339 149.752C135.7 161.516 119.786 165.528 116.375 157.735C110.415 144.195 103.682 131.01 96.2091 118.244L86.9665 122.865C86.9665 122.865 64.2801 131.687 54.1972 123.285C52.0254 121.868 50.048 120.173 48.3156 118.244C48.3156 118.244 40.3333 105.64 55.4576 96.3974C63.0197 93.0365 60.9191 93.4566 73.9428 92.1962L59.2387 76.2317C43.6649 84.0921 29.5237 87.5749 17.2268 85.4743C-6.71992 82.0756 -8.40039 44.2649 40.7534 49.9575Z" fill="#6A6F4C"/>
</svg>
